<svg version="1.1" id="Calque_1" xmlns="http://www.w3.org/2000/svg" xmlns:xlink="http://www.w3.org/1999/xlink" x="0px" y="0px" viewBox="0 0 319.3 109.3" style="enable-background:new 0 0 319.3 109.3;" xml:space="preserve">
<style type="text/css">
	.st0{fill:#1D1D1B;}
	.st1{fill:#3026FF;}
	.st2{fill:#FF4700;}
	.st3{fill:url(#SVGID_1_);}
	.st4{fill:url(#SVGID_00000049202810002508409970000003530673132418405294_);}
</style>
<g>
	<path class="st0" d="M104.5,79.2l0,0.5h-4.9v-8.2h4.9V72h-4.3v3.3h3.6v0.5h-3.6v3.4H104.5z M103.9,69l-1.9,1.7c0,0-0.1,0-0.1,0.1   c0,0-0.1,0-0.1,0h-0.4l1.5-1.6c0-0.1,0.1-0.1,0.1-0.1c0,0,0.1,0,0.2,0H103.9z"/>
	<path class="st0" d="M112.8,78.3C112.8,78.3,112.9,78.3,112.8,78.3l0.3,0.3c-0.2,0.2-0.4,0.3-0.6,0.5c-0.2,0.1-0.4,0.3-0.7,0.4   c-0.2,0.1-0.5,0.2-0.8,0.2s-0.6,0.1-0.9,0.1c-0.6,0-1.1-0.1-1.6-0.3c-0.5-0.2-0.9-0.5-1.2-0.8c-0.3-0.4-0.6-0.8-0.8-1.3   c-0.2-0.5-0.3-1.1-0.3-1.7c0-0.6,0.1-1.2,0.3-1.7c0.2-0.5,0.5-1,0.8-1.3c0.3-0.4,0.8-0.7,1.3-0.9c0.5-0.2,1-0.3,1.6-0.3   c0.6,0,1.1,0.1,1.5,0.3c0.4,0.2,0.8,0.4,1.2,0.7l-0.2,0.3c0,0-0.1,0.1-0.1,0.1c0,0-0.1,0-0.2-0.1c-0.1-0.1-0.2-0.2-0.4-0.3   c-0.2-0.1-0.4-0.2-0.7-0.3c-0.3-0.1-0.6-0.1-1-0.1c-0.5,0-0.9,0.1-1.4,0.3c-0.4,0.2-0.8,0.4-1.1,0.7c-0.3,0.3-0.5,0.7-0.7,1.2   c-0.2,0.5-0.2,1-0.2,1.5c0,0.6,0.1,1.1,0.3,1.6c0.2,0.5,0.4,0.8,0.7,1.2c0.3,0.3,0.6,0.6,1,0.7c0.4,0.2,0.8,0.3,1.3,0.3   c0.3,0,0.6,0,0.8-0.1c0.2,0,0.4-0.1,0.6-0.2c0.2-0.1,0.4-0.2,0.5-0.3c0.2-0.1,0.3-0.2,0.5-0.4C112.7,78.4,112.7,78.3,112.8,78.3   C112.8,78.3,112.8,78.3,112.8,78.3z"/>
	<path class="st0" d="M122.7,75.6c0,0.6-0.1,1.2-0.3,1.7c-0.2,0.5-0.5,1-0.8,1.3c-0.3,0.4-0.8,0.6-1.2,0.8c-0.5,0.2-1,0.3-1.6,0.3   c-0.6,0-1.1-0.1-1.6-0.3c-0.5-0.2-0.9-0.5-1.2-0.8c-0.3-0.4-0.6-0.8-0.8-1.3c-0.2-0.5-0.3-1.1-0.3-1.7c0-0.6,0.1-1.2,0.3-1.7   c0.2-0.5,0.5-1,0.8-1.3c0.3-0.4,0.8-0.6,1.2-0.8c0.5-0.2,1-0.3,1.6-0.3c0.6,0,1.1,0.1,1.6,0.3c0.5,0.2,0.9,0.5,1.2,0.8   c0.3,0.4,0.6,0.8,0.8,1.3C122.6,74.4,122.7,75,122.7,75.6z M122.1,75.6c0-0.6-0.1-1.1-0.2-1.5c-0.2-0.5-0.4-0.8-0.7-1.2   c-0.3-0.3-0.6-0.6-1-0.7c-0.4-0.2-0.9-0.3-1.3-0.3c-0.5,0-0.9,0.1-1.3,0.3c-0.4,0.2-0.8,0.4-1,0.7c-0.3,0.3-0.5,0.7-0.7,1.2   c-0.2,0.5-0.2,1-0.2,1.5c0,0.6,0.1,1.1,0.2,1.5c0.2,0.5,0.4,0.8,0.7,1.2c0.3,0.3,0.6,0.6,1,0.7c0.4,0.2,0.9,0.2,1.3,0.2   c0.5,0,0.9-0.1,1.3-0.2c0.4-0.2,0.8-0.4,1-0.7c0.3-0.3,0.5-0.7,0.7-1.2C122,76.7,122.1,76.2,122.1,75.6z"/>
	<path class="st0" d="M129.9,79.2v0.5h-4.5v-8.2h0.6v7.7H129.9z"/>
	<path class="st0" d="M137,79.2l0,0.5h-4.9v-8.2h4.9V72h-4.3v3.3h3.6v0.5h-3.6v3.4H137z"/>
	<path class="st0" d="M146.5,79.3c0.4,0,0.7-0.1,1.1-0.2c0.3-0.1,0.6-0.3,0.8-0.6c0.2-0.2,0.4-0.5,0.5-0.9c0.1-0.3,0.2-0.7,0.2-1.1   v-5.1h0.6v5.1c0,0.5-0.1,0.9-0.2,1.3c-0.1,0.4-0.3,0.7-0.6,1c-0.3,0.3-0.6,0.5-1,0.7c-0.4,0.2-0.8,0.2-1.3,0.2   c-0.5,0-0.9-0.1-1.3-0.2c-0.4-0.2-0.7-0.4-1-0.7c-0.3-0.3-0.5-0.6-0.6-1c-0.1-0.4-0.2-0.8-0.2-1.3v-5.1h0.6v5.1   c0,0.4,0.1,0.7,0.2,1.1c0.1,0.3,0.3,0.6,0.5,0.9c0.2,0.2,0.5,0.4,0.8,0.6C145.8,79.2,146.1,79.3,146.5,79.3z"/>
	<path class="st0" d="M159.1,71.5v8.2h-0.3c0,0-0.1,0-0.1,0c0,0-0.1,0-0.1-0.1l-5.3-7.1c0,0.1,0,0.2,0,0.3v6.9h-0.5v-8.2h0.3   c0.1,0,0.1,0,0.1,0c0,0,0.1,0,0.1,0.1l5.3,7.1c0-0.1,0-0.2,0-0.3v-6.9H159.1z"/>
	<path class="st0" d="M162.9,79.7h-0.6v-8.2h0.6V79.7z"/>
	<path class="st0" d="M172.4,71.5l-3.4,8.2h-0.5l-3.4-8.2h0.5c0.1,0,0.1,0,0.1,0c0,0,0.1,0.1,0.1,0.1l2.8,6.8c0,0.1,0.1,0.2,0.1,0.3   c0,0.1,0.1,0.2,0.1,0.3c0-0.1,0-0.2,0.1-0.3c0-0.1,0.1-0.2,0.1-0.3l2.8-6.8c0,0,0-0.1,0.1-0.1c0,0,0.1,0,0.1,0H172.4z"/>
	<path class="st0" d="M179.5,79.2l0,0.5h-4.9v-8.2h4.9V72h-4.3v3.3h3.6v0.5h-3.6v3.4H179.5z"/>
	<path class="st0" d="M187.8,79.7h-0.5c-0.1,0-0.1,0-0.2,0c0,0-0.1-0.1-0.1-0.1l-2.6-3.3c0,0-0.1-0.1-0.1-0.1c0,0-0.1-0.1-0.1-0.1   c0,0-0.1,0-0.1,0c-0.1,0-0.1,0-0.2,0h-1.1v3.7h-0.6v-8.2h2.1c0.9,0,1.6,0.2,2.1,0.5c0.5,0.4,0.7,0.9,0.7,1.6c0,0.3-0.1,0.6-0.2,0.9   c-0.1,0.3-0.3,0.5-0.5,0.7c-0.2,0.2-0.4,0.4-0.7,0.5c-0.3,0.1-0.6,0.2-1,0.2c0.1,0.1,0.2,0.1,0.2,0.2L187.8,79.7z M184.1,75.6   c0.4,0,0.7,0,1-0.1c0.3-0.1,0.5-0.2,0.7-0.4c0.2-0.2,0.4-0.4,0.5-0.6c0.1-0.2,0.2-0.5,0.2-0.8c0-0.6-0.2-1-0.6-1.3   c-0.4-0.3-0.9-0.4-1.7-0.4h-1.5v3.6H184.1z"/>
	<path class="st0" d="M193.9,72.5c0,0.1-0.1,0.1-0.2,0.1c0,0-0.1,0-0.2-0.1c-0.1-0.1-0.2-0.2-0.3-0.2c-0.1-0.1-0.3-0.2-0.5-0.2   c-0.2-0.1-0.5-0.1-0.8-0.1c-0.3,0-0.6,0-0.8,0.1c-0.2,0.1-0.4,0.2-0.6,0.3c-0.2,0.1-0.3,0.3-0.3,0.5c-0.1,0.2-0.1,0.4-0.1,0.6   c0,0.3,0.1,0.5,0.2,0.7c0.1,0.2,0.3,0.3,0.5,0.5c0.2,0.1,0.4,0.2,0.7,0.3c0.2,0.1,0.5,0.2,0.8,0.3c0.3,0.1,0.5,0.2,0.8,0.3   c0.2,0.1,0.5,0.2,0.7,0.4c0.2,0.2,0.3,0.3,0.5,0.6c0.1,0.2,0.2,0.5,0.2,0.8c0,0.3-0.1,0.7-0.2,1c-0.1,0.3-0.3,0.6-0.5,0.8   c-0.2,0.2-0.5,0.4-0.8,0.5c-0.3,0.1-0.7,0.2-1.1,0.2c-0.5,0-1-0.1-1.4-0.3c-0.4-0.2-0.7-0.5-1-0.8l0.2-0.3c0-0.1,0.1-0.1,0.2-0.1   c0,0,0.1,0,0.1,0.1c0.1,0,0.1,0.1,0.2,0.2s0.2,0.1,0.3,0.2c0.1,0.1,0.2,0.2,0.4,0.2c0.1,0.1,0.3,0.1,0.5,0.2c0.2,0,0.4,0.1,0.6,0.1   c0.3,0,0.6,0,0.9-0.1c0.3-0.1,0.5-0.2,0.6-0.4c0.2-0.2,0.3-0.4,0.4-0.6c0.1-0.2,0.1-0.5,0.1-0.8c0-0.3-0.1-0.5-0.2-0.7   c-0.1-0.2-0.3-0.3-0.5-0.5c-0.2-0.1-0.4-0.2-0.7-0.3c-0.2-0.1-0.5-0.2-0.8-0.2c-0.3-0.1-0.5-0.2-0.8-0.3c-0.2-0.1-0.5-0.2-0.7-0.4   c-0.2-0.2-0.3-0.4-0.5-0.6c-0.1-0.2-0.2-0.5-0.2-0.9c0-0.3,0.1-0.5,0.2-0.8c0.1-0.3,0.3-0.5,0.5-0.7c0.2-0.2,0.4-0.4,0.7-0.5   s0.6-0.2,1-0.2c0.4,0,0.8,0.1,1.1,0.2c0.3,0.1,0.6,0.3,0.9,0.6L193.9,72.5z"/>
	<path class="st0" d="M197.6,79.7H197v-8.2h0.6V79.7z"/>
	<path class="st0" d="M206.1,72h-2.9v7.7h-0.6V72h-2.9v-0.5h6.4V72z"/>
	<path class="st0" d="M213.7,79.7h-0.5c-0.1,0-0.1,0-0.1,0c0,0-0.1-0.1-0.1-0.1l-1-2.4h-4l-1,2.4c0,0,0,0.1-0.1,0.1c0,0-0.1,0-0.1,0   h-0.5l3.4-8.2h0.6L213.7,79.7z M211.9,76.7l-1.7-4.1c-0.1-0.1-0.1-0.3-0.2-0.5c0,0.1,0,0.2-0.1,0.3c0,0.1-0.1,0.2-0.1,0.2l-1.7,4.1   H211.9z"/>
	<path class="st0" d="M216.5,79.7h-0.6v-8.2h0.6V79.7z"/>
	<path class="st0" d="M225.4,79.7h-0.5c-0.1,0-0.1,0-0.2,0c0,0-0.1-0.1-0.1-0.1l-2.6-3.3c0,0-0.1-0.1-0.1-0.1c0,0-0.1-0.1-0.1-0.1   c0,0-0.1,0-0.1,0c-0.1,0-0.1,0-0.2,0h-1.1v3.7h-0.6v-8.2h2.1c0.9,0,1.6,0.2,2.1,0.5c0.5,0.4,0.7,0.9,0.7,1.6c0,0.3-0.1,0.6-0.2,0.9   c-0.1,0.3-0.3,0.5-0.5,0.7c-0.2,0.2-0.4,0.4-0.7,0.5c-0.3,0.1-0.6,0.2-1,0.2c0.1,0.1,0.2,0.1,0.2,0.2L225.4,79.7z M221.8,75.6   c0.4,0,0.7,0,1-0.1c0.3-0.1,0.5-0.2,0.7-0.4c0.2-0.2,0.4-0.4,0.5-0.6c0.1-0.2,0.2-0.5,0.2-0.8c0-0.6-0.2-1-0.6-1.3   c-0.4-0.3-0.9-0.4-1.7-0.4h-1.5v3.6H221.8z"/>
	<path class="st0" d="M232.5,79.2l0,0.5h-4.9v-8.2h4.9V72h-4.3v3.3h3.6v0.5h-3.6v3.4H232.5z"/>
	<path class="st0" d="M106.4,88.6c0,0.6-0.1,1.2-0.3,1.7c-0.2,0.5-0.5,0.9-0.8,1.3c-0.3,0.4-0.8,0.6-1.2,0.8c-0.5,0.2-1,0.3-1.6,0.3   h-3v-8.2h3c0.6,0,1.1,0.1,1.6,0.3c0.5,0.2,0.9,0.5,1.2,0.8c0.3,0.4,0.6,0.8,0.8,1.3C106.3,87.4,106.4,88,106.4,88.6z M105.8,88.6   c0-0.6-0.1-1.1-0.2-1.5c-0.2-0.4-0.4-0.8-0.7-1.1c-0.3-0.3-0.6-0.5-1-0.7c-0.4-0.2-0.9-0.2-1.3-0.2h-2.4v7.2h2.4   c0.5,0,0.9-0.1,1.3-0.2c0.4-0.2,0.8-0.4,1-0.7c0.3-0.3,0.5-0.7,0.7-1.1C105.8,89.7,105.8,89.2,105.8,88.6z"/>
	<path class="st0" d="M114.1,92.2l0,0.5h-4.9v-8.2h4.9V85h-4.3v3.3h3.6v0.5h-3.6v3.4H114.1z"/>
	<path class="st0" d="M126.3,92.7h-0.5c-0.1,0-0.1,0-0.2,0c0,0-0.1-0.1-0.1-0.1l-2.6-3.3c0,0-0.1-0.1-0.1-0.1c0,0-0.1-0.1-0.1-0.1   s-0.1,0-0.1,0c-0.1,0-0.1,0-0.2,0h-1.1v3.7h-0.6v-8.2h2.1c0.9,0,1.6,0.2,2.1,0.5c0.5,0.4,0.7,0.9,0.7,1.6c0,0.3-0.1,0.6-0.2,0.9   c-0.1,0.3-0.3,0.5-0.5,0.7c-0.2,0.2-0.4,0.4-0.7,0.5c-0.3,0.1-0.6,0.2-1,0.2c0.1,0.1,0.2,0.1,0.2,0.2L126.3,92.7z M122.7,88.6   c0.4,0,0.7,0,1-0.1c0.3-0.1,0.5-0.2,0.7-0.4c0.2-0.2,0.4-0.4,0.5-0.6c0.1-0.2,0.2-0.5,0.2-0.8c0-0.6-0.2-1-0.6-1.3   c-0.4-0.3-0.9-0.4-1.7-0.4h-1.5v3.6H122.7z"/>
	<path class="st0" d="M133.4,92.2l0,0.5h-4.9v-8.2h4.9V85h-4.3v3.3h3.6v0.5h-3.6v3.4H133.4z"/>
	<path class="st0" d="M141.8,91.3C141.8,91.3,141.8,91.4,141.8,91.3l0.3,0.3c-0.2,0.2-0.4,0.3-0.6,0.5c-0.2,0.1-0.4,0.3-0.7,0.4   c-0.2,0.1-0.5,0.2-0.8,0.2s-0.6,0.1-0.9,0.1c-0.6,0-1.1-0.1-1.6-0.3c-0.5-0.2-0.9-0.5-1.2-0.8s-0.6-0.8-0.8-1.3   c-0.2-0.5-0.3-1.1-0.3-1.7c0-0.6,0.1-1.2,0.3-1.7c0.2-0.5,0.5-1,0.8-1.3c0.3-0.4,0.8-0.7,1.3-0.9c0.5-0.2,1-0.3,1.6-0.3   c0.6,0,1.1,0.1,1.5,0.3c0.4,0.2,0.8,0.4,1.2,0.7l-0.2,0.3c0,0-0.1,0.1-0.1,0.1c0,0-0.1,0-0.2-0.1c-0.1-0.1-0.2-0.2-0.4-0.3   c-0.2-0.1-0.4-0.2-0.7-0.3c-0.3-0.1-0.6-0.1-1-0.1c-0.5,0-0.9,0.1-1.4,0.3c-0.4,0.2-0.8,0.4-1.1,0.7c-0.3,0.3-0.5,0.7-0.7,1.2   c-0.2,0.5-0.2,1-0.2,1.5c0,0.6,0.1,1.1,0.3,1.6c0.2,0.5,0.4,0.8,0.7,1.2c0.3,0.3,0.6,0.6,1,0.7c0.4,0.2,0.8,0.3,1.3,0.3   c0.3,0,0.6,0,0.8-0.1c0.2,0,0.4-0.1,0.6-0.2c0.2-0.1,0.4-0.2,0.5-0.3c0.2-0.1,0.3-0.2,0.5-0.4C141.7,91.4,141.7,91.4,141.8,91.3   C141.7,91.3,141.7,91.3,141.8,91.3z"/>
	<path class="st0" d="M150.8,84.5v8.2h-0.6v-3.9h-5.1v3.9h-0.6v-8.2h0.6v3.8h5.1v-3.8H150.8z"/>
	<path class="st0" d="M159,92.2l0,0.5H154v-8.2h4.9V85h-4.3v3.3h3.6v0.5h-3.6v3.4H159z"/>
	<path class="st0" d="M167.2,92.7h-0.5c-0.1,0-0.1,0-0.2,0c0,0-0.1-0.1-0.1-0.1l-2.6-3.3c0,0-0.1-0.1-0.1-0.1c0,0-0.1-0.1-0.1-0.1   c0,0-0.1,0-0.1,0c-0.1,0-0.1,0-0.2,0h-1.1v3.7h-0.6v-8.2h2.1c0.9,0,1.6,0.2,2.1,0.5c0.5,0.4,0.7,0.9,0.7,1.6c0,0.3-0.1,0.6-0.2,0.9   c-0.1,0.3-0.3,0.5-0.5,0.7c-0.2,0.2-0.4,0.4-0.7,0.5c-0.3,0.1-0.6,0.2-1,0.2c0.1,0.1,0.2,0.1,0.2,0.2L167.2,92.7z M163.6,88.6   c0.4,0,0.7,0,1-0.1c0.3-0.1,0.5-0.2,0.7-0.4c0.2-0.2,0.4-0.4,0.5-0.6c0.1-0.2,0.2-0.5,0.2-0.8c0-0.6-0.2-1-0.6-1.3   c-0.4-0.3-0.9-0.4-1.7-0.4h-1.5v3.6H163.6z"/>
	<path class="st0" d="M175.3,91.3C175.3,91.3,175.4,91.4,175.3,91.3l0.3,0.3c-0.2,0.2-0.4,0.3-0.6,0.5c-0.2,0.1-0.4,0.3-0.7,0.4   c-0.2,0.1-0.5,0.2-0.8,0.2s-0.6,0.1-0.9,0.1c-0.6,0-1.1-0.1-1.6-0.3c-0.5-0.2-0.9-0.5-1.2-0.8s-0.6-0.8-0.8-1.3   c-0.2-0.5-0.3-1.1-0.3-1.7c0-0.6,0.1-1.2,0.3-1.7c0.2-0.5,0.5-1,0.8-1.3c0.3-0.4,0.8-0.7,1.3-0.9c0.5-0.2,1-0.3,1.6-0.3   c0.6,0,1.1,0.1,1.5,0.3c0.4,0.2,0.8,0.4,1.2,0.7l-0.2,0.3c0,0-0.1,0.1-0.1,0.1c0,0-0.1,0-0.2-0.1c-0.1-0.1-0.2-0.2-0.4-0.3   c-0.2-0.1-0.4-0.2-0.7-0.3c-0.3-0.1-0.6-0.1-1-0.1c-0.5,0-0.9,0.1-1.4,0.3c-0.4,0.2-0.8,0.4-1.1,0.7c-0.3,0.3-0.5,0.7-0.7,1.2   c-0.2,0.5-0.2,1-0.2,1.5c0,0.6,0.1,1.1,0.3,1.6c0.2,0.5,0.4,0.8,0.7,1.2c0.3,0.3,0.6,0.6,1,0.7c0.4,0.2,0.8,0.3,1.3,0.3   c0.3,0,0.6,0,0.8-0.1c0.2,0,0.4-0.1,0.6-0.2c0.2-0.1,0.4-0.2,0.5-0.3c0.2-0.1,0.3-0.2,0.5-0.4C175.2,91.4,175.2,91.4,175.3,91.3   C175.3,91.3,175.3,91.3,175.3,91.3z"/>
	<path class="st0" d="M184.4,84.5v8.2h-0.6v-3.9h-5.1v3.9H178v-8.2h0.6v3.8h5.1v-3.8H184.4z"/>
	<path class="st0" d="M192.5,92.2l0,0.5h-4.9v-8.2h4.9V85h-4.3v3.3h3.6v0.5h-3.6v3.4H192.5z"/>
	<path class="st0" d="M204,92.2l0,0.5h-4.9v-8.2h4.9V85h-4.3v3.3h3.6v0.5h-3.6v3.4H204z"/>
	<path class="st0" d="M212.9,84.5v8.2h-0.3c0,0-0.1,0-0.1,0c0,0-0.1,0-0.1-0.1l-5.3-7.1c0,0.1,0,0.2,0,0.3v6.9h-0.5v-8.2h0.3   c0.1,0,0.1,0,0.1,0c0,0,0.1,0,0.1,0.1l5.3,7.1c0-0.1,0-0.2,0-0.3v-6.9H212.9z"/>
	<path class="st0" d="M226,91.3C226.1,91.3,226.1,91.4,226,91.3l0.3,0.3c-0.2,0.2-0.4,0.3-0.6,0.5c-0.2,0.1-0.4,0.3-0.7,0.4   c-0.2,0.1-0.5,0.2-0.8,0.2s-0.6,0.1-0.9,0.1c-0.6,0-1.1-0.1-1.6-0.3c-0.5-0.2-0.9-0.5-1.2-0.8s-0.6-0.8-0.8-1.3   c-0.2-0.5-0.3-1.1-0.3-1.7c0-0.6,0.1-1.2,0.3-1.7c0.2-0.5,0.5-1,0.8-1.3c0.3-0.4,0.8-0.7,1.3-0.9c0.5-0.2,1-0.3,1.6-0.3   c0.6,0,1.1,0.1,1.5,0.3c0.4,0.2,0.8,0.4,1.2,0.7l-0.2,0.3c0,0-0.1,0.1-0.1,0.1c0,0-0.1,0-0.2-0.1c-0.1-0.1-0.2-0.2-0.4-0.3   c-0.2-0.1-0.4-0.2-0.7-0.3c-0.3-0.1-0.6-0.1-1-0.1c-0.5,0-0.9,0.1-1.4,0.3c-0.4,0.2-0.8,0.4-1.1,0.7c-0.3,0.3-0.5,0.7-0.7,1.2   c-0.2,0.5-0.2,1-0.2,1.5c0,0.6,0.1,1.1,0.3,1.6c0.2,0.5,0.4,0.8,0.7,1.2c0.3,0.3,0.6,0.6,1,0.7c0.4,0.2,0.8,0.3,1.3,0.3   c0.3,0,0.6,0,0.8-0.1c0.2,0,0.4-0.1,0.6-0.2c0.2-0.1,0.4-0.2,0.5-0.3c0.2-0.1,0.3-0.2,0.5-0.4C226,91.4,226,91.4,226,91.3   C226,91.3,226,91.3,226,91.3z"/>
	<path class="st0" d="M231.3,89.3v3.4h-0.6v-3.4l-3-4.8h0.5c0.1,0,0.1,0,0.1,0c0,0,0.1,0.1,0.1,0.1l2.3,3.8c0,0.1,0.1,0.2,0.1,0.3   c0,0.1,0.1,0.2,0.1,0.2c0-0.1,0.1-0.2,0.1-0.2c0-0.1,0.1-0.2,0.1-0.3l2.3-3.8c0,0,0-0.1,0.1-0.1c0,0,0.1,0,0.1,0h0.5L231.3,89.3z"/>
	<path class="st0" d="M238.8,84.5c0.5,0,0.9,0,1.2,0.1c0.3,0.1,0.6,0.2,0.9,0.4c0.2,0.2,0.4,0.4,0.5,0.7c0.1,0.3,0.2,0.6,0.2,0.9   c0,0.2,0,0.4-0.1,0.6c-0.1,0.2-0.2,0.4-0.3,0.6c-0.1,0.2-0.3,0.3-0.5,0.4s-0.4,0.2-0.7,0.3c0.6,0.1,1.1,0.3,1.5,0.6   c0.3,0.3,0.5,0.8,0.5,1.3c0,0.3-0.1,0.7-0.2,0.9c-0.1,0.3-0.3,0.5-0.5,0.7c-0.2,0.2-0.5,0.3-0.9,0.4c-0.3,0.1-0.7,0.2-1.2,0.2h-2.7   v-8.2H238.8z M237.1,85v3.4h1.8c0.4,0,0.7,0,1-0.1c0.3-0.1,0.5-0.2,0.7-0.4c0.2-0.2,0.3-0.3,0.4-0.5c0.1-0.2,0.1-0.4,0.1-0.6   c0-0.6-0.2-1-0.5-1.3c-0.3-0.3-0.9-0.4-1.6-0.4H237.1z M239.1,92.2c0.7,0,1.3-0.2,1.6-0.5c0.4-0.3,0.6-0.7,0.6-1.3   c0-0.3,0-0.5-0.1-0.7c-0.1-0.2-0.2-0.4-0.4-0.5c-0.2-0.1-0.4-0.3-0.7-0.3c-0.3-0.1-0.6-0.1-0.9-0.1h-2.1v3.5H239.1z"/>
	<path class="st0" d="M249.5,92.2l0,0.5h-4.9v-8.2h4.9V85h-4.3v3.3h3.6v0.5h-3.6v3.4H249.5z"/>
	<path class="st0" d="M257.8,92.7h-0.5c-0.1,0-0.1,0-0.2,0c0,0-0.1-0.1-0.1-0.1l-2.6-3.3c0,0-0.1-0.1-0.1-0.1c0,0-0.1-0.1-0.1-0.1   c0,0-0.1,0-0.1,0c-0.1,0-0.1,0-0.2,0h-1.1v3.7h-0.6v-8.2h2.1c0.9,0,1.6,0.2,2.1,0.5c0.5,0.4,0.7,0.9,0.7,1.6c0,0.3-0.1,0.6-0.2,0.9   c-0.1,0.3-0.3,0.5-0.5,0.7c-0.2,0.2-0.4,0.4-0.7,0.5c-0.3,0.1-0.6,0.2-1,0.2c0.1,0.1,0.2,0.1,0.2,0.2L257.8,92.7z M254.2,88.6   c0.4,0,0.7,0,1-0.1c0.3-0.1,0.5-0.2,0.7-0.4c0.2-0.2,0.4-0.4,0.5-0.6c0.1-0.2,0.2-0.5,0.2-0.8c0-0.6-0.2-1-0.6-1.3   c-0.4-0.3-0.9-0.4-1.7-0.4h-1.5v3.6H254.2z"/>
	<path class="st0" d="M263.9,85.5c0,0.1-0.1,0.1-0.2,0.1c0,0-0.1,0-0.2-0.1c-0.1-0.1-0.2-0.2-0.3-0.2c-0.1-0.1-0.3-0.2-0.5-0.2   s-0.5-0.1-0.8-0.1c-0.3,0-0.6,0-0.8,0.1c-0.2,0.1-0.4,0.2-0.6,0.3c-0.2,0.1-0.3,0.3-0.3,0.5c-0.1,0.2-0.1,0.4-0.1,0.6   c0,0.3,0.1,0.5,0.2,0.7c0.1,0.2,0.3,0.3,0.5,0.5s0.4,0.2,0.7,0.3c0.2,0.1,0.5,0.2,0.8,0.3c0.3,0.1,0.5,0.2,0.8,0.3   c0.2,0.1,0.5,0.2,0.7,0.4c0.2,0.2,0.3,0.3,0.5,0.6c0.1,0.2,0.2,0.5,0.2,0.8c0,0.3-0.1,0.7-0.2,1c-0.1,0.3-0.3,0.6-0.5,0.8   c-0.2,0.2-0.5,0.4-0.8,0.5c-0.3,0.1-0.7,0.2-1.1,0.2c-0.5,0-1-0.1-1.4-0.3c-0.4-0.2-0.7-0.5-1-0.8l0.2-0.3c0-0.1,0.1-0.1,0.2-0.1   c0,0,0.1,0,0.1,0.1c0.1,0,0.1,0.1,0.2,0.2s0.2,0.1,0.3,0.2c0.1,0.1,0.2,0.2,0.4,0.2s0.3,0.1,0.5,0.2c0.2,0,0.4,0.1,0.6,0.1   c0.3,0,0.6,0,0.9-0.1c0.3-0.1,0.5-0.2,0.6-0.4c0.2-0.2,0.3-0.4,0.4-0.6c0.1-0.2,0.1-0.5,0.1-0.8c0-0.3-0.1-0.5-0.2-0.7   c-0.1-0.2-0.3-0.3-0.5-0.5c-0.2-0.1-0.4-0.2-0.7-0.3c-0.2-0.1-0.5-0.2-0.8-0.2c-0.3-0.1-0.5-0.2-0.8-0.3c-0.2-0.1-0.5-0.2-0.7-0.4   c-0.2-0.2-0.3-0.4-0.5-0.6c-0.1-0.2-0.2-0.5-0.2-0.9c0-0.3,0.1-0.5,0.2-0.8c0.1-0.3,0.3-0.5,0.5-0.7c0.2-0.2,0.4-0.4,0.7-0.5   c0.3-0.1,0.6-0.2,1-0.2c0.4,0,0.8,0.1,1.1,0.2c0.3,0.1,0.6,0.3,0.9,0.6L263.9,85.5z"/>
	<path class="st0" d="M271.9,92.2l0,0.5H267v-8.2h4.9V85h-4.3v3.3h3.6v0.5h-3.6v3.4H271.9z M271.4,82l-1.9,1.7c0,0-0.1,0-0.1,0.1   c0,0-0.1,0-0.1,0h-0.4l1.5-1.6c0-0.1,0.1-0.1,0.1-0.1c0,0,0.1,0,0.2,0H271.4z"/>
	<path class="st0" d="M280.2,91.3C280.3,91.3,280.3,91.4,280.2,91.3l0.3,0.3c-0.2,0.2-0.4,0.3-0.6,0.5c-0.2,0.1-0.4,0.3-0.7,0.4   c-0.2,0.1-0.5,0.2-0.8,0.2c-0.3,0.1-0.6,0.1-0.9,0.1c-0.6,0-1.1-0.1-1.6-0.3c-0.5-0.2-0.9-0.5-1.2-0.8c-0.3-0.4-0.6-0.8-0.8-1.3   c-0.2-0.5-0.3-1.1-0.3-1.7c0-0.6,0.1-1.2,0.3-1.7c0.2-0.5,0.5-1,0.8-1.3c0.3-0.4,0.8-0.7,1.3-0.9c0.5-0.2,1-0.3,1.6-0.3   c0.6,0,1.1,0.1,1.5,0.3c0.4,0.2,0.8,0.4,1.2,0.7l-0.2,0.3c0,0-0.1,0.1-0.1,0.1c0,0-0.1,0-0.2-0.1c-0.1-0.1-0.2-0.2-0.4-0.3   c-0.2-0.1-0.4-0.2-0.7-0.3c-0.3-0.1-0.6-0.1-1-0.1c-0.5,0-0.9,0.1-1.4,0.3c-0.4,0.2-0.8,0.4-1.1,0.7c-0.3,0.3-0.5,0.7-0.7,1.2   c-0.2,0.5-0.2,1-0.2,1.5c0,0.6,0.1,1.1,0.3,1.6c0.2,0.5,0.4,0.8,0.7,1.2c0.3,0.3,0.6,0.6,1,0.7c0.4,0.2,0.8,0.3,1.3,0.3   c0.3,0,0.6,0,0.8-0.1c0.2,0,0.4-0.1,0.6-0.2c0.2-0.1,0.4-0.2,0.5-0.3c0.2-0.1,0.3-0.2,0.5-0.4C280.1,91.4,280.2,91.4,280.2,91.3   C280.2,91.3,280.2,91.3,280.2,91.3z"/>
	<path class="st0" d="M286,92.3c0.4,0,0.7-0.1,1.1-0.2c0.3-0.1,0.6-0.3,0.8-0.6c0.2-0.2,0.4-0.5,0.5-0.9c0.1-0.3,0.2-0.7,0.2-1.1   v-5.1h0.6v5.1c0,0.5-0.1,0.9-0.2,1.3c-0.1,0.4-0.3,0.7-0.6,1c-0.3,0.3-0.6,0.5-1,0.7c-0.4,0.2-0.8,0.2-1.3,0.2s-0.9-0.1-1.3-0.2   c-0.4-0.2-0.7-0.4-1-0.7c-0.3-0.3-0.5-0.6-0.6-1c-0.1-0.4-0.2-0.8-0.2-1.3v-5.1h0.6v5.1c0,0.4,0.1,0.7,0.2,1.1   c0.1,0.3,0.3,0.6,0.5,0.9c0.2,0.2,0.5,0.4,0.8,0.6C285.2,92.2,285.6,92.3,286,92.3z"/>
	<path class="st0" d="M297.8,92.7h-0.5c-0.1,0-0.1,0-0.2,0c0,0-0.1-0.1-0.1-0.1l-2.6-3.3c0,0-0.1-0.1-0.1-0.1c0,0-0.1-0.1-0.1-0.1   c0,0-0.1,0-0.1,0c-0.1,0-0.1,0-0.2,0h-1.1v3.7h-0.6v-8.2h2.1c0.9,0,1.6,0.2,2.1,0.5c0.5,0.4,0.7,0.9,0.7,1.6c0,0.3-0.1,0.6-0.2,0.9   c-0.1,0.3-0.3,0.5-0.5,0.7c-0.2,0.2-0.4,0.4-0.7,0.5c-0.3,0.1-0.6,0.2-1,0.2c0.1,0.1,0.2,0.1,0.2,0.2L297.8,92.7z M294.2,88.6   c0.4,0,0.7,0,1-0.1c0.3-0.1,0.5-0.2,0.7-0.4c0.2-0.2,0.4-0.4,0.5-0.6c0.1-0.2,0.2-0.5,0.2-0.8c0-0.6-0.2-1-0.6-1.3   c-0.4-0.3-0.9-0.4-1.7-0.4h-1.5v3.6H294.2z"/>
	<path class="st0" d="M300.6,92.7H300v-8.2h0.6V92.7z"/>
	<path class="st0" d="M309.2,85h-2.9v7.7h-0.6V85h-2.9v-0.5h6.4V85z"/>
	<path class="st0" d="M316.3,92.2l0,0.5h-4.9v-8.2h4.9V85H312v3.3h3.6v0.5H312v3.4H316.3z M315.8,82l-1.9,1.7c0,0-0.1,0-0.1,0.1   c0,0-0.1,0-0.1,0h-0.4l1.5-1.6c0-0.1,0.1-0.1,0.1-0.1c0,0,0.1,0,0.2,0H315.8z"/>
	<rect x="99.5" y="38.3" class="st1" width="13.4" height="3.7"/>
	<polygon class="st2" points="99.5,60.9 99.5,60.9 112.9,60.9 112.9,60.9 112.9,57.2 99.5,57.2  "/>
	<path d="M151.4,50.4c-0.4-0.3-0.8-0.6-1.3-0.8c-0.2-0.1-0.3-0.2-0.5-0.3c-0.7-0.3-1.4-0.5-2.1-0.8c-0.7-0.2-1.4-0.5-2.1-0.7   c-0.7-0.2-1.3-0.5-1.8-0.9c-0.5-0.4-1-0.8-1.3-1.3c-0.3-0.5-0.5-1.1-0.5-1.9c0-0.6,0.1-1.1,0.3-1.7c0.2-0.5,0.5-1,1-1.4   s0.9-0.7,1.6-1c0.6-0.2,1.3-0.4,2.2-0.4c0.8,0,1.5,0.1,2.1,0.3c0.6,0.2,1,0.4,1.4,0.7c0.4,0.2,0.7,0.5,0.9,0.7   c0.2,0.2,0.4,0.3,0.5,0.3c0.2,0,0.3-0.1,0.4-0.3l0.4-0.7c-0.8-0.8-1.6-1.3-2.5-1.7c-0.3-0.1-0.6-0.2-0.9-0.3   c-0.7-0.2-1.4-0.3-2.3-0.3c-0.8,0-1.5,0.1-2.2,0.3c-0.2,0.1-0.4,0.1-0.6,0.2c-0.8,0.3-1.5,0.8-2,1.3c-0.6,0.5-1,1.2-1.3,1.9   c-0.3,0.7-0.4,1.4-0.4,2.2c0,1,0.2,1.8,0.5,2.4c0.3,0.6,0.8,1.2,1.3,1.6c0.5,0.4,1.1,0.8,1.8,1.1c0.6,0.2,1.2,0.4,1.8,0.6   c0.1,0,0.2,0.1,0.3,0.1c0.7,0.2,1.4,0.5,2.1,0.7c0.7,0.2,1.3,0.5,1.8,0.9c0.5,0.3,1,0.8,1.3,1.3c0.3,0.5,0.5,1.2,0.5,2   c0,0.7-0.1,1.4-0.4,2.1s-0.6,1.2-1.1,1.7c-0.5,0.5-1.1,0.8-1.8,1.1s-1.5,0.4-2.4,0.4c-0.6,0-1.2-0.1-1.7-0.2   c-0.5-0.1-1-0.3-1.4-0.5c-0.4-0.2-0.7-0.4-1-0.6c-0.3-0.2-0.6-0.4-0.8-0.6c-0.2-0.2-0.4-0.3-0.5-0.5c-0.1-0.1-0.3-0.2-0.4-0.2   c-0.2,0-0.3,0.1-0.4,0.2l-0.4,0.7c0.8,0.9,1.7,1.6,2.8,2.2c0.5,0.2,1,0.4,1.5,0.5c0.7,0.2,1.5,0.3,2.3,0.3c0.8,0,1.5-0.1,2.2-0.3   c0.3-0.1,0.6-0.2,0.9-0.3c0.9-0.4,1.6-0.8,2.3-1.5c0.6-0.6,1.1-1.3,1.4-2.2c0.3-0.8,0.5-1.7,0.5-2.7c0-0.9-0.2-1.7-0.5-2.3   C152.3,51.3,151.9,50.8,151.4,50.4z"/>
	<path d="M176.7,57.1c-0.1,0-0.1,0-0.2,0c-0.1,0-0.1,0.1-0.2,0.1c-0.4,0.4-0.9,0.8-1.4,1.1c-0.5,0.3-1,0.6-1.5,0.8   c-0.5,0.2-1.1,0.4-1.7,0.5c-0.6,0.1-1.4,0.2-2.2,0.2c-1.3,0-2.5-0.2-3.6-0.7c-1.1-0.5-2.1-1.1-2.9-2c-0.8-0.9-1.4-1.9-1.9-3.2   c-0.5-1.2-0.7-2.7-0.7-4.3c0,0,0,0,0,0c0-1.6,0.2-3,0.7-4.2c0.5-1.3,1.1-2.3,1.9-3.2c0.8-0.9,1.8-1.5,2.9-2   c1.1-0.5,2.4-0.7,3.7-0.7c1.1,0,2,0.1,2.7,0.4c0.8,0.2,1.4,0.5,1.9,0.8c0.5,0.3,0.9,0.5,1.2,0.8c0.3,0.2,0.5,0.4,0.6,0.4   c0.2,0,0.3-0.1,0.4-0.2l0.5-0.7c-1-0.9-2.1-1.5-3.3-2c-0.5-0.2-1-0.3-1.5-0.4c-0.8-0.2-1.7-0.3-2.6-0.3c-0.9,0-1.8,0.1-2.6,0.3   c-0.6,0.1-1.3,0.3-1.8,0.6c-1.3,0.6-2.5,1.3-3.4,2.4c-1,1-1.7,2.2-2.2,3.6c-0.5,1.4-0.8,3-0.8,4.7c0,0,0,0,0,0   c0,1.7,0.3,3.3,0.8,4.7c0.5,1.4,1.2,2.6,2.2,3.6c0.9,1,2.1,1.8,3.4,2.3c0.6,0.2,1.2,0.4,1.8,0.6c0.8,0.2,1.6,0.3,2.5,0.3   c0.9,0,1.8-0.1,2.6-0.2c0,0,0.1,0,0.1,0c0.7-0.2,1.4-0.4,2.1-0.6c0.7-0.3,1.3-0.6,1.8-1c0.5-0.4,1.1-0.8,1.5-1.3l-0.6-0.7   C176.9,57.1,176.8,57.1,176.7,57.1z"/>
	<polygon points="200,38.3 200,48.8 185.9,48.8 185.9,38.3 185.9,38.3 184.2,38.3 184.2,38.3 184.2,49.6 184.2,60.9 184.2,60.9    185.9,60.9 185.9,60.9 185.9,50.1 200,50.1 200,60.9 200,60.9 201.7,60.9 201.7,60.9 201.7,49.6 201.7,38.3 201.7,38.3 200,38.3     "/>
	<path d="M227.6,41.2c-0.9-1-2.1-1.8-3.4-2.3c-0.6-0.2-1.2-0.4-1.8-0.5c-0.8-0.2-1.7-0.3-2.6-0.3c-0.9,0-1.8,0.1-2.6,0.3   c-0.6,0.1-1.2,0.3-1.8,0.6c-1.3,0.6-2.4,1.3-3.4,2.3c-0.9,1-1.7,2.2-2.2,3.6c-0.5,1.4-0.8,3-0.8,4.7c0,0,0,0,0,0   c0,1.7,0.3,3.3,0.8,4.7c0.5,1.4,1.3,2.6,2.2,3.6c0.9,1,2.1,1.8,3.4,2.3c0.6,0.3,1.3,0.4,1.9,0.6c0.8,0.2,1.6,0.2,2.4,0.2   s1.7-0.1,2.4-0.2c0.7-0.1,1.3-0.3,1.9-0.6c1.3-0.5,2.5-1.3,3.4-2.3c0.9-1,1.7-2.2,2.2-3.6c0.5-1.4,0.8-3,0.8-4.7c0,0,0,0,0,0   c0-1.7-0.3-3.3-0.8-4.7C229.3,43.4,228.5,42.2,227.6,41.2z M228.2,53.8c-0.4,1.2-1.1,2.3-1.8,3.2c-0.8,0.9-1.8,1.5-2.9,2   c-1.1,0.5-2.3,0.7-3.7,0.7c-1.3,0-2.6-0.2-3.7-0.7c-1.1-0.5-2.1-1.1-2.9-2c-0.8-0.9-1.4-1.9-1.9-3.2c-0.4-1.2-0.7-2.7-0.7-4.2   c0,0,0,0,0,0c0-1.6,0.2-3,0.7-4.2c0.4-1.3,1.1-2.3,1.9-3.2c0.8-0.9,1.8-1.5,2.9-2c1.1-0.5,2.3-0.7,3.7-0.7c1.3,0,2.6,0.2,3.7,0.7   c1.1,0.5,2.1,1.1,2.9,2c0.8,0.9,1.4,1.9,1.8,3.2c0.4,1.3,0.7,2.7,0.7,4.2c0,0,0,0,0,0C228.9,51.2,228.7,52.6,228.2,53.8z"/>
	<path d="M255.1,41.2c-0.9-1-2.1-1.8-3.4-2.3c-0.6-0.2-1.2-0.4-1.8-0.5c-0.8-0.2-1.7-0.3-2.6-0.3c-0.9,0-1.8,0.1-2.6,0.3   c-0.6,0.1-1.2,0.3-1.8,0.6c-1.3,0.6-2.4,1.3-3.4,2.3c-0.9,1-1.7,2.2-2.2,3.6c-0.5,1.4-0.8,3-0.8,4.7c0,0,0,0,0,0   c0,1.7,0.3,3.3,0.8,4.7c0.5,1.4,1.3,2.6,2.2,3.6c0.9,1,2.1,1.8,3.4,2.3c0.6,0.3,1.3,0.4,1.9,0.6c0.8,0.2,1.6,0.2,2.4,0.2   c0.9,0,1.7-0.1,2.4-0.2c0.7-0.1,1.3-0.3,1.9-0.6c1.3-0.5,2.5-1.3,3.4-2.3c0.9-1,1.7-2.2,2.2-3.6c0.5-1.4,0.8-3,0.8-4.7c0,0,0,0,0,0   c0-1.7-0.3-3.3-0.8-4.7C256.7,43.4,256,42.2,255.1,41.2z M255.7,53.8c-0.4,1.2-1.1,2.3-1.8,3.2c-0.8,0.9-1.8,1.5-2.9,2   c-1.1,0.5-2.3,0.7-3.7,0.7c-1.3,0-2.6-0.2-3.7-0.7c-1.1-0.5-2.1-1.1-2.9-2c-0.8-0.9-1.4-1.9-1.9-3.2c-0.4-1.2-0.7-2.7-0.7-4.2   c0,0,0,0,0,0c0-1.6,0.2-3,0.7-4.2c0.4-1.3,1.1-2.3,1.9-3.2c0.8-0.9,1.8-1.5,2.9-2c1.1-0.5,2.3-0.7,3.7-0.7c1.3,0,2.6,0.2,3.7,0.7   c1.1,0.5,2.1,1.1,2.9,2c0.8,0.9,1.4,1.9,1.8,3.2c0.4,1.3,0.7,2.7,0.7,4.2c0,0,0,0,0,0C256.4,51.2,256.1,52.6,255.7,53.8z"/>
	<polygon points="267.1,59.5 267.1,49.6 267.1,38.3 267.1,38.3 265.5,38.3 265.5,38.3 265.5,49.6 265.5,60.9 265.5,60.9 277.8,60.9    277.8,60.9 277.8,59.5  "/>
	<path class="st1" d="M127,50.7c0.7-0.3,1.3-0.6,1.9-1.1c0.4-0.3,0.7-0.7,1-1.1l0,0c0,0,0,0,0,0c0.1-0.1,0.2-0.3,0.3-0.4   c0,0,0,0,0,0c0.2-0.4,0.4-0.8,0.6-1.2c0,0,0-0.1,0-0.1c0-0.1,0.1-0.2,0.1-0.3c0-0.1,0-0.2,0.1-0.3c0-0.1,0-0.2,0.1-0.3   c0-0.1,0-0.2,0.1-0.3c0-0.1,0-0.1,0-0.2c0-0.2,0-0.4,0-0.6c0-0.2,0-0.4,0-0.6c0-0.1,0-0.1,0-0.2c0-0.1,0-0.2-0.1-0.3   c0-0.1,0-0.2-0.1-0.3c0-0.1,0-0.2-0.1-0.3c0-0.1-0.1-0.2-0.1-0.3c0,0,0-0.1,0-0.1c-0.2-0.4-0.4-0.9-0.6-1.2c0,0,0,0,0,0   c-0.1-0.1-0.2-0.3-0.3-0.4c0,0,0,0,0,0l0,0c-1.2-1.5-3-2.6-5.1-2.6H118V42h6.9c0.6,0,1.1,0.2,1.5,0.5c0.7,0.5,1.2,1.3,1.2,2.2   c0,1.1-0.7,2.1-1.7,2.5c-0.3,0.1-0.7,0.2-1.1,0.2H118v2.2v1.5h5l6.1,9.8l0,0h4.3l0,0L127,50.7z"/>
	<polygon class="st1" points="99.5,49.6 99.5,51.1 112.9,51.1 112.9,49.6 112.9,47.4 99.5,47.4  "/>
	<linearGradient id="SVGID_1_" gradientUnits="userSpaceOnUse" x1="109.8402" y1="51.4155" x2="52.1998" y2="2.6428">
		<stop offset="0" style="stop-color:#3026FF"/>
		<stop offset="0.2339" style="stop-color:#3326FF"/>
		<stop offset="0.4146" style="stop-color:#3D26FF"/>
		<stop offset="0.5776" style="stop-color:#4D26FF"/>
		<stop offset="0.73" style="stop-color:#6526FF"/>
		<stop offset="0.8738" style="stop-color:#8226FF"/>
		<stop offset="1" style="stop-color:#A326FF"/>
	</linearGradient>
	<path class="st3" d="M69.9,23.1c3.1,2.4,5.7,5.2,7.8,8.5l10.2-13.5c-2.5-3-5.3-5.7-8.4-8.1c-3-2.2-6.2-4.2-9.6-5.7   C63.7,1.6,56.8,0,49.6,0v16.2c7.6,0,14.6,2.5,20.2,6.8C69.8,23,69.9,23.1,69.9,23.1z"/>
	
		<linearGradient id="SVGID_00000039831690811960754750000010740990833096420737_" gradientUnits="userSpaceOnUse" x1="70.4362" y1="97.984" x2="12.7957" y2="49.2113">
		<stop offset="0" style="stop-color:#3026FF"/>
		<stop offset="0.2339" style="stop-color:#3326FF"/>
		<stop offset="0.4146" style="stop-color:#3D26FF"/>
		<stop offset="0.5776" style="stop-color:#4D26FF"/>
		<stop offset="0.73" style="stop-color:#6526FF"/>
		<stop offset="0.8738" style="stop-color:#8226FF"/>
		<stop offset="1" style="stop-color:#A326FF"/>
	</linearGradient>
	<path style="fill:url(#SVGID_00000039831690811960754750000010740990833096420737_);" d="M0,49.6C0,49.6,0,49.6,0,49.6   c0,3.9,0.5,7.6,1.3,11.3c5.1,22,24.8,38.3,48.3,38.3c7.3,0,14.1-1.6,20.4-4.4c3.4-1.5,6.6-3.5,9.6-5.7c3.6-2.7,6.8-6,9.6-9.6   l-12.9-9.8c-1.8,2.4-3.9,4.5-6.3,6.3c-0.1,0-0.1,0.1-0.2,0.1C64.1,80.5,57.2,83,49.6,83c-14.5,0-26.8-9.2-31.4-22.2   c-1.3-3.5-2-7.3-2-11.3c0,0,0,0,0,0H0z"/>
	<path class="st2" d="M47.1,60.9c0.8,0.2,1.7,0.3,2.5,0.3s1.7-0.1,2.5-0.3c1.6-0.4,3.2-1.1,4.5-2.1l-2.4-3.2c-1.3,1-2.9,1.5-4.6,1.5   c-4.2,0-7.6-3.4-7.6-7.6c0,0,0,0,0,0c0-4.2,3.4-7.6,7.6-7.6c1.7,0,3.3,0.6,4.6,1.5l2.4-3.2c-1.3-1-2.8-1.7-4.5-2.1   c-0.8-0.2-1.6-0.3-2.5-0.3c-0.9,0-1.7,0.1-2.5,0.3c-5.2,1.1-9.1,5.8-9.1,11.3c0,0,0,0,0,0C38,55.1,41.9,59.7,47.1,60.9z"/>
	<path class="st1" d="M49.6,47.5c-1.2,0-2.1,0.9-2.1,2.1c0,0,0,0,0,0c0,1.2,0.9,2.1,2.1,2.1c0.5,0,0.9-0.2,1.3-0.4   c0.2-0.1,0.3-0.3,0.4-0.4c0.3-0.4,0.4-0.8,0.4-1.3c0,0,0,0,0,0c0-0.7-0.3-1.3-0.8-1.7C50.5,47.7,50,47.5,49.6,47.5z"/>
	<path class="st2" d="M92.3,48.5c0.8-1.1,1.3-2.4,1.3-3.8c0-3.5-2.9-6.4-6.4-6.4H81h-0.7V42h1.7h5.2c1.5,0,2.7,1.2,2.7,2.7   c0,1.5-1.2,2.7-2.7,2.7h-4.4h-2.5v2.2v1.5h2.6h5.7c1.7,0,3.1,1.4,3.1,3.1c0,1.7-1.4,3.1-3.1,3.1h-6.6h-1.7v3.7H81h7.8   c3.7-0.1,6.6-3.1,6.6-6.7c0-1.7-0.7-3.3-1.8-4.5C93.2,49.2,92.8,48.8,92.3,48.5z"/>
	<polygon class="st2" points="71.2,40.2 69.9,41.9 64.5,49 64.5,49.6 64.5,60.9 68.2,60.9 68.2,50.2 68.7,49.6 69.9,47.9 77.2,38.3    72.6,38.3  "/>
</g>
</svg>